<svg width="32" height="32" viewBox="0 0 32 32" fill="none" xmlns="http://www.w3.org/2000/svg">
<path d="M17.65 16.33C17.65 16.9026 17.5372 17.4696 17.3181 17.9985C17.099 18.5275 16.7778 19.0082 16.373 19.413C15.9681 19.8179 15.4875 20.139 14.9585 20.3581C14.4295 20.5773 13.8626 20.69 13.29 20.69C12.7174 20.69 12.1505 20.5773 11.6215 20.3581C11.0925 20.139 10.6119 19.8179 10.207 19.413C9.80215 19.0082 9.481 18.5275 9.26189 17.9985C9.04278 17.4696 8.93 16.9026 8.93 16.33C8.93 15.1737 9.38936 14.0647 10.207 13.247C11.0247 12.4294 12.1337 11.97 13.29 11.97C14.4463 11.97 15.5553 12.4294 16.373 13.247C17.1906 14.0647 17.65 15.1737 17.65 16.33Z" fill="#DB6D1D"/>
<path d="M27.42 5.88001L25.56 4.02C24.2587 2.72429 22.4964 1.99781 20.66 2C18.82 2 17.08 2.72001 15.78 4.02L15.6 4.21001C14.65 5.16001 13.38 5.75001 12.03 5.87C9.44 6.09 7.01 7.22001 5.18 9.05C4.1696 10.0551 3.36835 11.2503 2.82254 12.5668C2.27672 13.8833 1.99716 15.2949 2 16.72C1.99575 18.2123 2.30165 19.6892 2.8983 21.0571C3.49495 22.425 4.36934 23.6539 5.466 24.666L7.74 26.94C8.70962 27.9102 9.86089 28.6798 11.128 29.2049C12.3952 29.7299 13.7534 30.0002 15.125 30.0002C16.4966 30.0002 17.8548 29.7299 19.122 29.2049C20.3891 28.6798 21.5404 27.9102 22.51 26.94C24.28 25.17 25.37 22.83 25.58 20.33C25.622 19.834 25.62 19.342 25.617 18.862C25.609 17.513 25.602 16.258 26.59 15.27L27.42 14.44C28.5534 13.3039 29.1899 11.7647 29.1899 10.16C29.1899 8.55527 28.5534 7.01606 27.42 5.88001ZM6.22 23.34C5.97 23.09 5.737 22.83 5.521 22.56L5.529 22.592C4.0851 20.7943 3.35489 18.5273 3.47814 16.2248C3.60139 13.9224 4.56944 11.7463 6.197 10.113L6.22 10.09C7.81173 8.49711 9.9161 7.51932 12.16 7.33C13.85 7.19 15.44 6.45001 16.64 5.25001L16.827 5.06301C17.3273 4.55828 17.9227 4.15765 18.5787 3.88424C19.2347 3.61082 19.9383 3.47003 20.649 3.47C21.7244 3.46664 22.7767 3.78257 23.6724 4.37777C24.5681 4.97298 25.267 5.82067 25.6805 6.81344C26.094 7.80621 26.2035 8.89938 25.9951 9.95444C25.7867 11.0095 25.2699 11.979 24.51 12.74L24.32 12.93C23.1219 14.1296 22.3823 15.7114 22.23 17.4C22.0407 19.6439 21.0629 21.7483 19.47 23.34C18.6001 24.2103 17.5673 24.9006 16.4306 25.3716C15.2939 25.8426 14.0755 26.0851 12.845 26.0851C11.6145 26.0851 10.3961 25.8426 9.25941 25.3716C8.12267 24.9006 7.08986 24.2103 6.22 23.34Z" fill="#DB6D1D"/>
</svg>
