<svg width="40" height="40" viewBox="0 0 40 40" fill="none" xmlns="http://www.w3.org/2000/svg">
<path d="M33.3333 14.9167L25.8817 6.66666L7.5 14.9167V25H33.3333V14.9167Z" stroke="#DB6D1D" stroke-width="4" stroke-linecap="round" stroke-linejoin="round"/>
<path d="M7.5 15H21.9883C22.0408 15 22.0833 15.0425 22.0833 15.095V18.0208C22.0833 18.3355 22.1453 18.647 22.2657 18.9377C22.3861 19.2284 22.5626 19.4925 22.7851 19.7149C23.0075 19.9374 23.2716 20.1139 23.5623 20.2343C23.853 20.3547 24.1645 20.4167 24.4792 20.4167C24.7938 20.4167 25.1053 20.3547 25.396 20.2343C25.6867 20.1139 25.9508 19.9374 26.1733 19.7149C26.3958 19.4925 26.5722 19.2284 26.6926 18.9377C26.813 18.647 26.875 18.3355 26.875 18.0208V15.095C26.875 15.0425 26.9175 15 26.97 15H33.3333" stroke="#DB6D1D" stroke-width="4" stroke-linecap="round" stroke-linejoin="round"/>
<path d="M7.91667 19.9642C7.415 20.2142 6.94833 20.4808 6.51833 20.7608C4.515 22.0675 3.33333 23.6767 3.33333 25.4167C3.33333 29.7892 10.795 33.3333 20 33.3333C29.205 33.3333 36.6667 29.7892 36.6667 25.4167C36.6667 23.6333 35.4267 21.9892 33.3333 20.6658" stroke="#DB6D1D" stroke-width="4"/>
</svg>
