<svg width="32" height="31" viewBox="0 0 32 31" fill="none" xmlns="http://www.w3.org/2000/svg">
<path d="M7.53579 12.864H10.061C12.5862 12.864 13.8488 11.631 13.8488 9.16502V6.69901C13.8488 4.233 12.5862 3 10.061 3H7.53579C5.01059 3 3.74799 4.233 3.74799 6.69901V9.16502C3.74799 11.631 5.01059 12.864 7.53579 12.864Z" stroke="#DB6D1D" stroke-width="5.7411" stroke-miterlimit="10" stroke-linecap="round" stroke-linejoin="round"/>
<path d="M22.687 12.864H25.2122C27.7374 12.864 29 11.631 29 9.16502V6.69901C29 4.233 27.7374 3 25.2122 3H22.687C20.1618 3 18.8992 4.233 18.8992 6.69901V9.16502C18.8992 11.631 20.1618 12.864 22.687 12.864Z" stroke="#DB6D1D" stroke-width="5.7411" stroke-miterlimit="10" stroke-linecap="round" stroke-linejoin="round"/>
<path d="M22.687 27.6601H25.2122C27.7374 27.6601 29 26.4271 29 23.9611V21.495C29 19.029 27.7374 17.796 25.2122 17.796H22.687C20.1618 17.796 18.8992 19.029 18.8992 21.495V23.9611C18.8992 26.4271 20.1618 27.6601 22.687 27.6601Z" stroke="#DB6D1D" stroke-width="5.7411" stroke-miterlimit="10" stroke-linecap="round" stroke-linejoin="round"/>
<path d="M7.53579 27.6601H10.061C12.5862 27.6601 13.8488 26.4271 13.8488 23.9611V21.495C13.8488 19.029 12.5862 17.796 10.061 17.796H7.53579C5.01059 17.796 3.74799 19.029 3.74799 21.495V23.9611C3.74799 26.4271 5.01059 27.6601 7.53579 27.6601Z" stroke="#DB6D1D" stroke-width="5.7411" stroke-miterlimit="10" stroke-linecap="round" stroke-linejoin="round"/>
</svg>
