<svg width="24" height="32" viewBox="0 0 24 32" fill="none" xmlns="http://www.w3.org/2000/svg">
<path d="M2.5 11.3333C2.5 7.99997 3 1.33331 8.5 3.99997C8.973 6.52131 7.5 11.3333 2.5 11.3333ZM21.5 11.3333C21.5 7.99997 21 1.33331 15.5 3.99997C15.027 6.52131 16.5 11.3333 21.5 11.3333Z" stroke="#DB6D1D" stroke-width="4" stroke-linecap="round" stroke-linejoin="round"/>
<path d="M15 14.6666H9C6.23858 14.6666 4 17.6514 4 21.3333C4 25.0152 6.23858 28 9 28H15C17.7614 28 20 25.0152 20 21.3333C20 17.6514 17.7614 14.6666 15 14.6666Z" stroke="#DB6D1D" stroke-width="4" stroke-linecap="round" stroke-linejoin="round"/>
<path d="M13.5 14.6666V12M10.5 14.6666V12M21.5 11.3333C22 13.3333 22 17.3333 20 19.3333M2.5 11.3333C2 13.3333 2.5 16.6666 4 19.3333M15 28H22L20 22M9 28H2L4 22" stroke="#DB6D1D" stroke-width="4" stroke-linecap="round" stroke-linejoin="round"/>
</svg>
