<svg width="32" height="32" viewBox="0 0 32 32" fill="none" xmlns="http://www.w3.org/2000/svg">
<path d="M21.97 4.17401C21.756 4.04601 21.5373 3.92601 21.314 3.81401C21.0907 3.70201 20.8573 3.59735 20.614 3.50001C20.5393 3.46855 20.4639 3.43854 20.388 3.41001C20.18 3.33301 19.97 3.24701 19.755 3.18501C18.223 2.67329 16.6022 2.48172 14.9931 2.6222C13.384 2.76268 11.8209 3.23221 10.4008 4.00168C8.98061 4.77114 7.73366 5.82414 6.73722 7.09537C5.74079 8.36661 5.01612 9.82899 4.60815 11.3918C4.20018 12.9547 4.1176 14.5847 4.36553 16.1807C4.61347 17.7768 5.18663 19.3049 6.04948 20.6704C6.91233 22.0358 8.04648 23.2094 9.3816 24.1185C10.7167 25.0275 12.2243 25.6526 13.811 25.955V29.33C20.9 28.265 27.176 22.664 27.644 15.31C27.7895 13.1148 27.3391 10.921 26.3403 8.96078C25.3415 7.00052 23.8315 5.34662 21.97 4.17401Z" fill="#DB6D1D"/>
<path d="M13.171 30.071V26.471C9.96718 25.6971 7.20202 23.6822 5.48381 20.8695C3.7656 18.0568 3.2351 14.6768 4.009 11.473C4.7829 8.26916 6.79782 5.504 9.61049 3.78579C12.4232 2.06758 15.8032 1.53707 19.007 2.31098C19.3257 2.38764 19.641 2.47731 19.953 2.57998C20.119 2.62898 20.291 2.69398 20.458 2.75698L20.609 2.81298L20.862 2.91298C21.073 2.99598 21.311 3.10298 21.595 3.24298C21.8337 3.36231 22.067 3.49031 22.295 3.62698C24.2581 4.85929 25.8509 6.60006 26.9044 8.66457C27.958 10.7291 28.433 13.0403 28.279 15.353C27.815 22.635 21.77 28.78 13.9 29.961L13.171 30.071ZM16.085 3.23098H16.069C13.2898 3.21909 10.6065 4.24561 8.5448 6.10932C6.48315 7.97304 5.1919 10.5396 4.92416 13.3058C4.65643 16.0721 5.4315 18.8386 7.09747 21.0631C8.76343 23.2876 11.2002 24.8097 13.93 25.331L14.446 25.431V28.575C21.361 27.227 26.592 21.735 27 15.27C27.1423 13.1911 26.7191 11.1125 25.7754 9.25467C24.8318 7.39686 23.4027 5.82918 21.64 4.71798C21.2363 4.47528 20.814 4.26496 20.377 4.08898C20.3103 4.05898 20.2407 4.03098 20.168 4.00498L20 3.94098C19.8587 3.88498 19.7153 3.83464 19.57 3.78998C18.4449 3.42061 17.2682 3.23226 16.084 3.23198L16.085 3.23098Z" fill="#1A1414" fill-opacity="0.25"/>
<path d="M13.7 8.383C13.8782 8.36085 14.059 8.38293 14.2267 8.44728C14.3943 8.51164 14.5434 8.6163 14.661 8.752C14.8431 8.9511 14.9923 9.17795 15.103 9.424C15.3395 9.84871 15.4752 10.3221 15.4995 10.8077C15.5237 11.2932 15.436 11.7778 15.243 12.224C14.7334 12.0936 14.2559 11.86 13.8402 11.5377C13.4244 11.2153 13.0792 10.8111 12.826 10.35C12.6979 10.0974 12.6259 9.82005 12.615 9.537C12.6223 9.24488 12.7369 8.96568 12.9371 8.75279C13.1373 8.5399 13.4089 8.40825 13.7 8.383ZM10.25 13.254C10.4821 13.4254 10.7295 13.575 10.989 13.701C11.4593 13.9039 11.9683 14.0015 12.4803 13.9869C12.9923 13.9724 13.4949 13.8462 13.953 13.617C13.7734 13.1489 13.5008 12.7221 13.1518 12.3622C12.8027 12.0023 12.3844 11.7168 11.922 11.523C11.6466 11.3993 11.3489 11.3329 11.047 11.328C10.9824 11.3225 10.9175 11.3225 10.853 11.328C10.6326 11.3376 10.4205 11.415 10.2456 11.5496C10.0708 11.6842 9.94177 11.8695 9.87615 12.0801C9.81052 12.2908 9.81149 12.5166 9.87894 12.7267C9.94639 12.9368 10.077 13.1209 10.253 13.254H10.25ZM13.95 15.338C13.3044 15.1145 12.6137 15.0537 11.939 15.161C11.5913 15.1661 11.2479 15.2388 10.928 15.375C10.6536 15.4721 10.402 15.6246 10.189 15.823C10.0099 15.9772 9.88526 16.1849 9.83346 16.4155C9.78166 16.646 9.80549 16.8872 9.90141 17.1031C9.99733 17.3191 10.1602 17.4984 10.366 17.6146C10.5718 17.7307 10.8095 17.7775 11.044 17.748C11.3467 17.75 11.6458 17.6834 11.919 17.553C12.3926 17.3451 12.8178 17.0408 13.1674 16.6597C13.5171 16.2785 13.7836 15.8277 13.95 15.338ZM15.534 16.552C15.0338 16.7371 14.5758 17.0209 14.1874 17.3864C13.799 17.752 13.488 18.1919 13.273 18.68C13.1496 18.9289 13.083 19.2022 13.078 19.48C13.0735 19.7137 13.1399 19.9434 13.2684 20.1387C13.3968 20.334 13.5814 20.4858 13.7979 20.5742C14.0143 20.6627 14.2524 20.6835 14.4809 20.634C14.7094 20.5845 14.9175 20.467 15.078 20.297C15.2427 20.0647 15.385 19.8172 15.503 19.558C15.7231 19.0894 15.8396 18.5788 15.8444 18.0611C15.8492 17.5433 15.7423 17.0307 15.531 16.558L15.534 16.552ZM17.094 12.2C17.5827 12.0567 18.0356 11.8115 18.4227 11.4806C18.8098 11.1497 19.1224 10.7405 19.34 10.28C19.4627 10.0248 19.5288 9.74612 19.534 9.463C19.5408 9.16294 19.4312 8.87189 19.2282 8.65081C19.0252 8.42974 18.7445 8.29578 18.445 8.277C18.2637 8.25722 18.0802 8.28236 17.9109 8.3502C17.7416 8.41804 17.5915 8.52649 17.474 8.666C17.3081 8.89815 17.1648 9.1456 17.046 9.405C16.8218 9.83825 16.7089 10.3205 16.7175 10.8082C16.726 11.2959 16.8558 11.7739 17.095 12.199L17.094 12.2ZM19.648 19.554C19.6424 19.2712 19.5759 18.9928 19.453 18.738C19.2549 18.274 18.9605 17.8574 18.5894 17.5158C18.2182 17.1741 17.7787 16.9151 17.3 16.756C17.0617 17.1911 16.9256 17.6747 16.9018 18.1702C16.8781 18.6657 16.9674 19.1601 17.163 19.616C17.2674 19.8639 17.4109 20.0935 17.588 20.296C17.7511 20.4569 17.9564 20.5685 18.1801 20.618C18.4038 20.6674 18.637 20.6527 18.8527 20.5755C19.0685 20.4983 19.258 20.3617 19.3996 20.1815C19.5412 20.0014 19.629 19.7849 19.653 19.557L19.648 19.554ZM22.198 15.742C21.9656 15.5774 21.7181 15.4351 21.459 15.317C21.139 15.1809 20.7957 15.1082 20.448 15.103C19.7848 15.0477 19.1185 15.1638 18.513 15.44C18.6896 15.9029 18.9593 16.3247 19.3056 16.679C19.6519 17.0334 20.0673 17.3128 20.526 17.5C20.8015 17.6232 21.0992 17.6892 21.401 17.694C21.6381 17.7221 21.8779 17.6718 22.0837 17.5508C22.2896 17.4298 22.4501 17.2447 22.5408 17.0238C22.6315 16.803 22.6474 16.5585 22.5861 16.3277C22.5247 16.0969 22.3894 15.8926 22.201 15.746L22.198 15.742Z" fill="#1A1414" fill-opacity="0.25"/>
</svg>
