<svg width="32" height="33" viewBox="0 0 32 33" fill="none" xmlns="http://www.w3.org/2000/svg">
<g clip-path="url(#clip0_5_5)">
<path d="M16 0.5C24.837 0.5 32 7.663 32 16.5C32 25.337 24.837 32.5 16 32.5C7.163 32.5 0 25.337 0 16.5C0 7.663 7.163 0.5 16 0.5ZM13.794 7.52C12.444 7.41 11.401 7.75 10.861 8.525L7.146 13.832C6.606 14.606 6.624 15.731 7.164 17.002C7.911 18.753 9.638 20.826 12.013 22.559C14.379 24.3 16.853 25.314 18.715 25.479C20.055 25.59 21.108 25.249 21.648 24.475L25.354 19.168C25.894 18.394 25.876 17.269 25.336 15.998C24.598 14.247 22.862 12.174 20.496 10.432C18.121 8.7 15.656 7.677 13.794 7.52ZM21.582 19.968C22.287 20.093 22.913 20.116 23.427 20.032C23.4609 20.0286 23.4949 20.0383 23.5219 20.0591C23.5489 20.0799 23.567 20.1102 23.5725 20.1438C23.578 20.1775 23.5704 20.2119 23.5514 20.2402C23.5324 20.2685 23.5032 20.2884 23.47 20.296C22.923 20.386 22.268 20.361 21.536 20.232C21.5014 20.2255 21.4707 20.2056 21.4506 20.1767C21.4305 20.1477 21.4226 20.112 21.4287 20.0773C21.4347 20.0426 21.4542 20.0116 21.4829 19.9912C21.5116 19.9707 21.5472 19.9624 21.582 19.968ZM20.555 19.729C20.728 19.778 20.898 19.822 21.065 19.861C21.0985 19.87 21.1271 19.8917 21.145 19.9214C21.1628 19.9511 21.1684 19.9866 21.1606 20.0204C21.1529 20.0542 21.1323 20.0836 21.1033 20.1026C21.0743 20.1215 21.039 20.1285 21.005 20.122C20.833 20.082 20.659 20.037 20.483 19.987C20.4498 19.9766 20.422 19.9536 20.4054 19.9231C20.3888 19.8925 20.3848 19.8567 20.3941 19.8232C20.4035 19.7896 20.4255 19.7611 20.4555 19.7435C20.4855 19.726 20.5212 19.7207 20.555 19.729ZM11.375 8.903C11.807 8.285 12.662 8.083 13.741 8.175C15.513 8.322 17.861 9.308 20.119 10.967C22.386 12.625 24.051 14.588 24.761 16.256C25.184 17.269 25.274 18.172 24.842 18.781L24.815 18.827C24.375 19.407 23.538 19.601 22.476 19.517C20.704 19.37 18.356 18.384 16.098 16.726C13.84 15.067 12.176 13.104 11.465 11.427C11.042 10.432 10.952 9.557 11.357 8.939L11.375 8.903ZM10.631 11.351C10.701 11.33 10.776 11.371 10.796 11.441C11.243 12.973 12.41 14.456 14.253 16.139L14.46 16.327C14.566 16.422 14.673 16.517 14.782 16.612C14.7954 16.6236 14.8064 16.6377 14.8143 16.6535C14.8222 16.6694 14.8269 16.6866 14.8281 16.7043C14.8293 16.722 14.827 16.7397 14.8213 16.7565C14.8157 16.7732 14.8067 16.7887 14.795 16.802C14.7835 16.8152 14.7694 16.8259 14.7537 16.8336C14.738 16.8414 14.721 16.8459 14.7035 16.847C14.686 16.8481 14.6685 16.8458 14.652 16.8401C14.6354 16.8345 14.6201 16.8256 14.607 16.814C14.464 16.6885 14.322 16.5618 14.181 16.434L13.976 16.248C12.156 14.57 10.996 13.081 10.541 11.517C10.5311 11.4831 10.5349 11.4466 10.5518 11.4155C10.5687 11.3844 10.5971 11.3612 10.631 11.351ZM15.882 11.068C15.378 11.031 14.974 11.114 14.776 11.4C14.578 11.685 14.632 12.1 14.83 12.57C15.18 13.408 16.017 14.385 17.15 15.215C18.284 16.044 19.454 16.541 20.344 16.615C20.839 16.661 21.244 16.578 21.442 16.293C21.649 16.007 21.595 15.593 21.388 15.123C21.037 14.283 20.2 13.298 19.067 12.469C17.942 11.639 16.764 11.151 15.882 11.068ZM10.485 10.29C10.5025 10.2893 10.5199 10.2921 10.5363 10.2982C10.5527 10.3043 10.5677 10.3135 10.5805 10.3254C10.5934 10.3373 10.6037 10.3516 10.611 10.3675C10.6183 10.3834 10.6224 10.4005 10.623 10.418C10.63 10.588 10.649 10.76 10.678 10.933C10.6816 10.9505 10.6817 10.9685 10.6782 10.986C10.6748 11.0036 10.6678 11.0202 10.6577 11.0349C10.6477 11.0497 10.6348 11.0623 10.6197 11.072C10.6047 11.0816 10.5879 11.0882 10.5703 11.0912C10.5527 11.0942 10.5347 11.0936 10.5173 11.0896C10.4999 11.0855 10.4835 11.0779 10.4691 11.0673C10.4547 11.0568 10.4426 11.0434 10.4335 11.0281C10.4243 11.0127 10.4184 10.9957 10.416 10.978C10.3846 10.7965 10.3648 10.6131 10.357 10.429C10.3562 10.4114 10.3589 10.3938 10.3649 10.3772C10.3709 10.3607 10.3801 10.3455 10.392 10.3325C10.4039 10.3194 10.4182 10.3089 10.4342 10.3015C10.4501 10.294 10.4674 10.2898 10.485 10.289V10.29Z" fill="#DB6D1D"/>
</g>
<defs>
<clipPath id="clip0_5_5">
<rect width="32" height="32" fill="white" transform="translate(0 0.5)"/>
</clipPath>
</defs>
</svg>
